<?xml version="1.0" encoding="UTF-8"?>
<svg id="Layer_2" data-name="Layer 2" xmlns="http://www.w3.org/2000/svg" viewBox="0 0 430.35 108.42"
  fill="currentColor">
  <g id="Layer_1-2" data-name="Layer 1">
    <g>
      <g>
        <path
          d="m76.55,66.97v39.95h0c-3.65,0-6.6-2.96-6.6-6.6v-30.61l-7.22-7.22v35.38h0c-3.65,0-6.6-2.96-6.6-6.6V28.91s-17.25-17.27-17.25-17.27l-15.81,16.78v62.85c0,3.65-2.96,6.6-6.6,6.6h0v-36.51l-8.36,8.35v30.61c0,3.65-2.96,6.6-6.6,6.6h0v-39.95l14.96-14.96v-26.22L38.73,2.15l23.99,24.02v26.97l13.82,13.82Z" />
        <path
          d="m78.05,108.42h-1.5c-4.47,0-8.1-3.63-8.1-8.1v-29.99l-4.22-4.22v33.26h-1.5c-4.47,0-8.1-3.63-8.1-8.1V29.53l-15.72-15.74-14.34,15.22v62.25c0,4.47-3.63,8.1-8.1,8.1h-1.5v-34.39l-5.36,5.35v29.99c0,4.47-3.64,8.1-8.1,8.1H0v-42.07l14.96-14.96v-26.2L38.7,0l25.52,25.56v26.97l13.82,13.82v42.07ZM3,67.59v37.6c2.08-.64,3.6-2.59,3.6-4.88v-31.23l11.36-11.35v38.41c2.08-.64,3.6-2.59,3.6-4.88V27.82l17.28-18.33,18.78,18.8v62.97c0,2.29,1.52,4.24,3.6,4.88v-37.27l10.22,10.22v31.23c0,2.29,1.52,4.24,3.6,4.88v-37.6l-13.82-13.82v-26.97L38.76,4.31l-20.8,22.08v26.25l-14.96,14.96Z" />
      </g>
      <g>
        <polygon
          points="118.49 40.5 118.49 49.07 140.65 49.07 140.65 59.9 118.49 59.9 118.49 67.79 143.46 67.79 143.46 78.54 106.86 78.54 106.86 29.87 143.46 29.87 143.46 40.5 118.49 40.5" />
        <path
          d="m180.61,54.45l18.1,24.09h-10.09c-2.8,0-5.43-1.35-7.07-3.62l-8.16-11.32-10.78,14.94h-14.56l18.1-24.09-18.47-24.52h10.09c2.8,0,5.43,1.35,7.08,3.62l8.54,11.83,11.14-15.44h14.5l-18.41,24.52Z" />
        <polygon
          points="240.27 29.87 240.27 40.5 227.19 40.5 227.19 78.54 215.56 78.54 215.56 40.5 202.42 40.5 202.42 29.87 240.27 29.87" />
        <path
          d="m285,76.26c-3.36-4.63-6.84-9.32-10.34-13.98,2.37-1.25,4.35-3.04,5.89-5.33,1.88-2.81,2.84-6.14,2.84-9.87,0-2.47-.43-4.79-1.26-6.88-.83-2.11-2.04-3.96-3.54-5.49-1.51-1.52-3.36-2.72-5.48-3.57-2.09-.85-4.45-1.26-6.94-1.26h-22.24v48.67h4.58c3.89,0,7.04-3.15,7.04-7.04v-7.55h6.5c1.61,2.29,3.21,4.56,4.82,6.78,1.75,2.44,3.57,4.86,5.39,7.24l.43.56h13.97l-1.65-2.28Zm-29.45-35.76h10.61c1.25,0,2.22.22,2.9.65.75.47,1.29,1.02,1.66,1.66.42.69.69,1.41.82,2.14.16.85.23,1.55.23,2.14,0,1.08-.17,2.01-.53,2.78-.36.79-.8,1.45-1.35,1.96-.52.52-1.09.87-1.76,1.13-.69.24-1.35.37-1.96.37h-10.61v-12.83Z" />
        <path
          d="m335.53,44.41c-1.32-3.05-3.13-5.75-5.39-8.02-2.27-2.27-4.96-4.09-7.99-5.41-3.04-1.32-6.35-1.99-9.84-1.99s-6.71.67-9.77,1.99c-3.03,1.32-5.71,3.14-7.97,5.41-2.27,2.27-4.09,4.96-5.41,8.02-1.32,3.07-1.99,6.37-1.99,9.79s.67,6.78,1.99,9.82c1.32,3.04,3.14,5.72,5.41,7.99,2.27,2.27,4.95,4.09,7.97,5.41,3.04,1.32,6.34,1.99,9.77,1.99s6.8-.67,9.84-1.99c3.03-1.32,5.72-3.14,7.99-5.41,2.27-2.27,4.07-4.95,5.39-7.99,1.33-3.04,1.99-6.34,1.99-9.82s-.66-6.74-1.99-9.79Zm-9.62,9.79c0,1.88-.37,3.69-1.08,5.38-.73,1.72-1.72,3.26-2.94,4.56-1.23,1.29-2.68,2.35-4.31,3.13-3.29,1.56-7.17,1.56-10.46,0-1.63-.77-3.08-1.84-4.31-3.13-1.22-1.31-2.21-2.84-2.93-4.56-.72-1.68-1.08-3.5-1.08-5.38s.36-3.66,1.08-5.36c.72-1.72,1.71-3.26,2.93-4.53,1.22-1.29,2.68-2.34,4.32-3.11,1.62-.76,3.37-1.15,5.23-1.15s3.61.39,5.22,1.15c1.63.77,3.1,1.82,4.32,3.11,1.23,1.28,2.21,2.81,2.94,4.53.7,1.72,1.08,3.51,1.08,5.36Z" />
        <path
          d="m381.07,40.66c-.93-2.14-2.19-4.03-3.79-5.61-1.58-1.58-3.46-2.85-5.61-3.77-2.15-.93-4.47-1.41-6.91-1.41h-21.83v48.67h5.32c3.48,0,6.29-2.82,6.29-6.29v-7.34h8.78c3.07,0,5.84-.44,8.22-1.32,2.41-.87,4.45-2.12,6.05-3.7,1.59-1.58,2.83-3.44,3.64-5.54.82-2.08,1.22-4.36,1.22-6.78s-.46-4.76-1.39-6.91Zm-16.3,13.49h-10.21v-13.65h9.28c1.15,0,2.15.2,3,.62.87.42,1.61.95,2.18,1.59.59.66,1.05,1.42,1.35,2.27.32.86.47,1.74.47,2.6,0,.9-.11,1.78-.37,2.6-.23.79-.59,1.46-1.09,2.08-.46.57-1.06,1.03-1.82,1.38-.76.34-1.71.53-2.78.53Z" />
        <path
          d="m430.35,29.93l-1.33,2.18c-1.18,1.92-2.52,4.12-4.04,6.58l-4.66,7.54c-1.58,2.57-3.15,5.09-4.69,7.57-1.45,2.32-2.74,4.46-3.86,6.35v11.71c0,3.69-2.99,6.68-6.68,6.68h-4.95v-18.38c-2.61-4.57-5.43-9.22-8.4-13.81-3.03-4.69-5.97-9.49-8.73-14.27l-1.25-2.15h13.51l.42.7c1.88,3.13,3.8,6.37,5.76,9.71,1.53,2.62,3.05,5.18,4.53,7.67.53-.86,1.08-1.75,1.63-2.68,1-1.66,1.99-3.34,3-5.03l2.97-5c.99-1.65,1.91-3.2,2.8-4.66l.42-.7h13.57Z" />
      </g>
    </g>
  </g>
</svg>
